<svg xmlns="http://www.w3.org/2000/svg" viewBox="0 0 438.78 438.78"><defs><style>.cls-1{fill:#007689;}</style></defs><title>close</title><g id="Слой_2" data-name="Слой 2"><g id="Режим_изоляции" data-name="Режим изоляции"><path class="cls-1" d="M432.9,404.15a20,20,0,1,1-28.35,28.34l-174-174a15.5,15.5,0,0,0-21.93,0L34.23,432.91a20,20,0,0,1-28.35,0,20,20,0,0,1,0-28.34l174.39-174.4a15.51,15.51,0,0,0,0-21.93l-174-174A20,20,0,1,1,34.62,5.88l174,174a15.55,15.55,0,0,0,21.93,0l174-174A20,20,0,1,1,432.9,34.23l-174,174a15.52,15.52,0,0,0,0,21.91Z"/></g></g></svg>