<svg xmlns="http://www.w3.org/2000/svg" viewBox="0 0 18.88 17.72"><defs><style>.cls-1{fill:#b6b6b6;stroke:#b6b6b6;stroke-miterlimit:10;stroke-width:0.25px;}</style></defs><title>date_icon</title><g id="Слой_2" data-name="Слой 2"><g id="Слой_1-2" data-name="Слой 1"><path class="cls-1" d="M15.85,1.29H13.52V.71a.58.58,0,1,0-1.16,0v.58H6.53V.71A.55.55,0,0,0,5.95.13a.55.55,0,0,0-.58.58v.58H3A2.88,2.88,0,0,0,.13,4.2V14.68A2.88,2.88,0,0,0,3,17.6H15.85a2.88,2.88,0,0,0,2.91-2.91V4.2a2.88,2.88,0,0,0-2.91-2.91ZM1.29,4.2A1.79,1.79,0,0,1,3,2.45H5.37V3a.55.55,0,0,0,.58.58A.55.55,0,0,0,6.53,3V2.45h5.82V3a.58.58,0,1,0,1.16,0V2.45h2.33A1.79,1.79,0,0,1,17.6,4.2V5.95H1.29ZM17.6,14.68a1.79,1.79,0,0,1-1.75,1.75H3a1.79,1.79,0,0,1-1.75-1.75V7.11H17.6Zm0,0"/><path class="cls-1" d="M4.2,14.68A1.06,1.06,0,0,0,5,14.33,1.13,1.13,0,0,0,5,12.7a1.13,1.13,0,0,0-1.63,0,1.06,1.06,0,0,0-.35.82,1.26,1.26,0,0,0,.35.82,1.06,1.06,0,0,0,.82.35Zm0,0"/><path class="cls-1" d="M4.2,11.19A1.06,1.06,0,0,0,5,10.84,1.26,1.26,0,0,0,5.37,10,1.26,1.26,0,0,0,5,9.21a1.13,1.13,0,0,0-1.63,0,1.13,1.13,0,0,0,0,1.63,1.06,1.06,0,0,0,.82.35Zm0,0"/><path class="cls-1" d="M7.7,14.68a1.06,1.06,0,0,0,.82-.35,1.13,1.13,0,0,0,0-1.63,1.13,1.13,0,0,0-1.63,0,1.13,1.13,0,0,0,0,1.63,1.06,1.06,0,0,0,.82.35Zm0,0"/><path class="cls-1" d="M7.7,11.19a1.06,1.06,0,0,0,.82-.35A1.26,1.26,0,0,0,8.86,10a1.26,1.26,0,0,0-.35-.82,1.13,1.13,0,0,0-1.63,0,1.26,1.26,0,0,0-.35.82,1.26,1.26,0,0,0,.35.82,1.06,1.06,0,0,0,.82.35Zm0,0"/><path class="cls-1" d="M11.19,14.68a1.19,1.19,0,0,0,1.16-1.16A1.06,1.06,0,0,0,12,12.7a1.13,1.13,0,0,0-1.63,0,1.13,1.13,0,0,0,0,1.63,1.06,1.06,0,0,0,.82.35Zm0,0"/><path class="cls-1" d="M11.19,11.19A1.19,1.19,0,0,0,12.35,10,1.26,1.26,0,0,0,12,9.21a1.13,1.13,0,0,0-1.63,0A1.26,1.26,0,0,0,10,10a1.26,1.26,0,0,0,.35.82,1.06,1.06,0,0,0,.82.35Zm0,0"/><path class="cls-1" d="M14.68,14.68a1.06,1.06,0,0,0,.82-.35,1.13,1.13,0,0,0,0-1.63,1.13,1.13,0,0,0-1.63,0,1.06,1.06,0,0,0-.35.82,1.26,1.26,0,0,0,.35.82,1.06,1.06,0,0,0,.82.35Zm0,0"/><path class="cls-1" d="M14.68,11.19A1.19,1.19,0,0,0,15.85,10a1.26,1.26,0,0,0-.35-.82,1.13,1.13,0,0,0-1.63,0,1.26,1.26,0,0,0-.35.82,1.26,1.26,0,0,0,.35.82,1.06,1.06,0,0,0,.82.35Zm0,0"/></g></g></svg>