<svg xmlns="http://www.w3.org/2000/svg" viewBox="0 0 1020 1020"><defs><style>.cls-1{fill:#fff;}</style></defs><title>dots_3</title><g id="Слой_2" data-name="Слой 2"><g id="Режим_изоляции" data-name="Режим изоляции"><circle class="cls-1" cx="10" cy="10" r="10"/><circle class="cls-1" cx="110" cy="10" r="10"/><circle class="cls-1" cx="210" cy="10" r="10"/><circle class="cls-1" cx="310" cy="10" r="10"/><circle class="cls-1" cx="410" cy="10" r="10"/><circle class="cls-1" cx="510" cy="10" r="10"/><circle class="cls-1" cx="610" cy="10" r="10"/><circle class="cls-1" cx="710" cy="10" r="10"/><circle class="cls-1" cx="810" cy="10" r="10"/><circle class="cls-1" cx="910" cy="10" r="10"/><circle class="cls-1" cx="1010" cy="10" r="10"/><circle class="cls-1" cx="10" cy="110" r="10"/><circle class="cls-1" cx="110" cy="110" r="10"/><circle class="cls-1" cx="210" cy="110" r="10"/><circle class="cls-1" cx="310" cy="110" r="10"/><circle class="cls-1" cx="410" cy="110" r="10"/><circle class="cls-1" cx="510" cy="110" r="10"/><circle class="cls-1" cx="610" cy="110" r="10"/><circle class="cls-1" cx="710" cy="110" r="10"/><circle class="cls-1" cx="810" cy="110" r="10"/><circle class="cls-1" cx="910" cy="110" r="10"/><circle class="cls-1" cx="1010" cy="110" r="10"/><circle class="cls-1" cx="10" cy="210" r="10"/><circle class="cls-1" cx="110" cy="210" r="10"/><circle class="cls-1" cx="210" cy="210" r="10"/><circle class="cls-1" cx="310" cy="210" r="10"/><circle class="cls-1" cx="410" cy="210" r="10"/><circle class="cls-1" cx="510" cy="210" r="10"/><circle class="cls-1" cx="610" cy="210" r="10"/><circle class="cls-1" cx="710" cy="210" r="10"/><circle class="cls-1" cx="810" cy="210" r="10"/><circle class="cls-1" cx="910" cy="210" r="10"/><circle class="cls-1" cx="1010" cy="210" r="10"/><circle class="cls-1" cx="10" cy="310" r="10"/><circle class="cls-1" cx="110" cy="310" r="10"/><circle class="cls-1" cx="210" cy="310" r="10"/><circle class="cls-1" cx="310" cy="310" r="10"/><circle class="cls-1" cx="410" cy="310" r="10"/><circle class="cls-1" cx="510" cy="310" r="10"/><circle class="cls-1" cx="610" cy="310" r="10"/><circle class="cls-1" cx="710" cy="310" r="10"/><circle class="cls-1" cx="810" cy="310" r="10"/><circle class="cls-1" cx="910" cy="310" r="10"/><circle class="cls-1" cx="1010" cy="310" r="10"/><circle class="cls-1" cx="10" cy="410" r="10"/><circle class="cls-1" cx="110" cy="410" r="10"/><circle class="cls-1" cx="210" cy="410" r="10"/><circle class="cls-1" cx="310" cy="410" r="10"/><circle class="cls-1" cx="410" cy="410" r="10"/><circle class="cls-1" cx="510" cy="410" r="10"/><circle class="cls-1" cx="610" cy="410" r="10"/><circle class="cls-1" cx="710" cy="410" r="10"/><circle class="cls-1" cx="810" cy="410" r="10"/><circle class="cls-1" cx="910" cy="410" r="10"/><circle class="cls-1" cx="1010" cy="410" r="10"/><circle class="cls-1" cx="10" cy="510" r="10"/><circle class="cls-1" cx="110" cy="510" r="10"/><circle class="cls-1" cx="210" cy="510" r="10"/><circle class="cls-1" cx="310" cy="510" r="10"/><circle class="cls-1" cx="410" cy="510" r="10"/><circle class="cls-1" cx="510" cy="510" r="10"/><circle class="cls-1" cx="610" cy="510" r="10"/><circle class="cls-1" cx="710" cy="510" r="10"/><circle class="cls-1" cx="810" cy="510" r="10"/><circle class="cls-1" cx="910" cy="510" r="10"/><circle class="cls-1" cx="1010" cy="510" r="10"/><circle class="cls-1" cx="10" cy="610" r="10"/><circle class="cls-1" cx="110" cy="610" r="10"/><circle class="cls-1" cx="210" cy="610" r="10"/><circle class="cls-1" cx="310" cy="610" r="10"/><circle class="cls-1" cx="410" cy="610" r="10"/><circle class="cls-1" cx="510" cy="610" r="10"/><circle class="cls-1" cx="610" cy="610" r="10"/><circle class="cls-1" cx="710" cy="610" r="10"/><circle class="cls-1" cx="810" cy="610" r="10"/><circle class="cls-1" cx="910" cy="610" r="10"/><circle class="cls-1" cx="1010" cy="610" r="10"/><circle class="cls-1" cx="10" cy="710" r="10"/><circle class="cls-1" cx="110" cy="710" r="10"/><circle class="cls-1" cx="210" cy="710" r="10"/><circle class="cls-1" cx="310" cy="710" r="10"/><circle class="cls-1" cx="410" cy="710" r="10"/><circle class="cls-1" cx="510" cy="710" r="10"/><circle class="cls-1" cx="610" cy="710" r="10"/><circle class="cls-1" cx="710" cy="710" r="10"/><circle class="cls-1" cx="810" cy="710" r="10"/><circle class="cls-1" cx="910" cy="710" r="10"/><circle class="cls-1" cx="1010" cy="710" r="10"/><circle class="cls-1" cx="10" cy="810" r="10"/><circle class="cls-1" cx="110" cy="810" r="10"/><circle class="cls-1" cx="210" cy="810" r="10"/><circle class="cls-1" cx="310" cy="810" r="10"/><circle class="cls-1" cx="410" cy="810" r="10"/><circle class="cls-1" cx="510" cy="810" r="10"/><circle class="cls-1" cx="610" cy="810" r="10"/><circle class="cls-1" cx="710" cy="810" r="10"/><circle class="cls-1" cx="810" cy="810" r="10"/><circle class="cls-1" cx="910" cy="810" r="10"/><circle class="cls-1" cx="1010" cy="810" r="10"/><circle class="cls-1" cx="10" cy="910" r="10"/><circle class="cls-1" cx="110" cy="910" r="10"/><circle class="cls-1" cx="210" cy="910" r="10"/><circle class="cls-1" cx="310" cy="910" r="10"/><circle class="cls-1" cx="410" cy="910" r="10"/><circle class="cls-1" cx="510" cy="910" r="10"/><circle class="cls-1" cx="610" cy="910" r="10"/><circle class="cls-1" cx="710" cy="910" r="10"/><circle class="cls-1" cx="810" cy="910" r="10"/><circle class="cls-1" cx="910" cy="910" r="10"/><circle class="cls-1" cx="1010" cy="910" r="10"/><circle class="cls-1" cx="10" cy="1010" r="10"/><circle class="cls-1" cx="110" cy="1010" r="10"/><circle class="cls-1" cx="210" cy="1010" r="10"/><circle class="cls-1" cx="310" cy="1010" r="10"/><circle class="cls-1" cx="410" cy="1010" r="10"/><circle class="cls-1" cx="510" cy="1010" r="10"/><circle class="cls-1" cx="610" cy="1010" r="10"/><circle class="cls-1" cx="710" cy="1010" r="10"/><circle class="cls-1" cx="810" cy="1010" r="10"/><circle class="cls-1" cx="910" cy="1010" r="10"/><circle class="cls-1" cx="1010" cy="1010" r="10"/></g></g></svg>