<svg xmlns="http://www.w3.org/2000/svg" viewBox="0 0 212.94 280"><defs><style>.cls-1{fill:#00d3c3;}</style></defs><title>icon_profile</title><g id="Слой_2" data-name="Слой 2"><g id="Слой_1-2" data-name="Слой 1"><path class="cls-1" d="M106.47,136.94c31.13,0,56.37-30.65,56.37-68.47S154.55,0,106.47,0,50.1,30.66,50.1,68.47s25.24,68.47,56.37,68.47Zm0,0"/><path class="cls-1" d="M212.82,238.72c-1-65.87-9.65-84.65-75.48-96.53,0,0-9.27,11.81-30.87,11.81S75.6,142.19,75.6,142.19C10.49,153.94,1.36,172.44.16,236.58c-.1,5.24-.14,5.51-.16,4.9,0,1.14,0,3.25,0,6.92,0,0,15.67,31.6,106.46,31.6s106.46-31.6,106.46-31.6c0-2.36,0-4,0-5.12a45.32,45.32,0,0,1-.12-4.57Zm0,0"/></g></g></svg>