<svg xmlns="http://www.w3.org/2000/svg" viewBox="0 0 166 166"><defs><style>.cls-1{fill:#00d3c3;}</style></defs><title>icon_shop</title><g id="Слой_2" data-name="Слой 2"><g id="Слой_1-2" data-name="Слой 1"><path class="cls-1" d="M49.81,132.81a16.6,16.6,0,1,0,16.57,16.57,16.66,16.66,0,0,0-16.57-16.57ZM0,0V16.62H16.62L46.48,79.68,34.85,99.62a30,30,0,0,0-1.66,8.26A16.67,16.67,0,0,0,49.81,124.5h99.57V107.88H53.13a1.75,1.75,0,0,1-1.66-1.66v-.81l7.46-14.1h61.44C127,91.31,132,88,134.47,83l29.87-53.94A4.61,4.61,0,0,0,166,24.88c0-4.94-3.32-8.26-8.31-8.26H34.85L27.4,0ZM132.81,132.81a16.6,16.6,0,1,0,16.57,16.57,16.66,16.66,0,0,0-16.57-16.57Zm0,0"/></g></g></svg>