<svg xmlns="http://www.w3.org/2000/svg" viewBox="0 0 381.86 390.52"><defs><style>.cls-1{fill:#00d3c3;}</style></defs><title>icon_timetable</title><g id="Слой_2" data-name="Слой 2"><g id="Слой_1-2" data-name="Слой 1"><path class="cls-1" d="M138,215.45a8.86,8.86,0,0,0-8.86-8.86H98.16a8.86,8.86,0,0,0-8.86,8.86v30.92a8.86,8.86,0,0,0,8.86,8.86h30.93a8.86,8.86,0,0,0,8.86-8.86Zm0,0"/><path class="cls-1" d="M215.26,215.45a8.86,8.86,0,0,0-8.86-8.86H175.47a8.86,8.86,0,0,0-8.86,8.86v30.92a8.86,8.86,0,0,0,8.86,8.86H206.4a8.86,8.86,0,0,0,8.86-8.86Zm0,0"/><path class="cls-1" d="M292.57,215.45a8.86,8.86,0,0,0-8.86-8.86H252.77a8.86,8.86,0,0,0-8.86,8.86v30.92a8.86,8.86,0,0,0,8.86,8.86h30.93a8.86,8.86,0,0,0,8.86-8.86Zm0,0"/><path class="cls-1" d="M138,292.76a8.86,8.86,0,0,0-8.86-8.86H98.16a8.86,8.86,0,0,0-8.86,8.86v30.92a8.86,8.86,0,0,0,8.86,8.86h30.93a8.86,8.86,0,0,0,8.86-8.86Zm0,0"/><path class="cls-1" d="M215.26,292.76a8.86,8.86,0,0,0-8.86-8.86H175.47a8.86,8.86,0,0,0-8.86,8.86v30.92a8.86,8.86,0,0,0,8.86,8.86H206.4a8.86,8.86,0,0,0,8.86-8.86Zm0,0"/><path class="cls-1" d="M292.57,292.76a8.86,8.86,0,0,0-8.86-8.86H252.77a8.86,8.86,0,0,0-8.86,8.86v30.92a8.86,8.86,0,0,0,8.86,8.86h30.94a8.86,8.86,0,0,0,8.86-8.86Zm0,0"/><path class="cls-1" d="M347.88,43.48V90.72a38.58,38.58,0,0,1-38.67,38.56H284.81a38.78,38.78,0,0,1-38.9-38.56V43.31H136V90.72a38.78,38.78,0,0,1-38.9,38.56H72.66A38.58,38.58,0,0,1,34,90.72V43.48a35.16,35.16,0,0,0-34,35V355.31a35.18,35.18,0,0,0,35,35.21H346.86a35.22,35.22,0,0,0,35-35.21V78.46a35.16,35.16,0,0,0-34-35ZM336.54,338.07a15.13,15.13,0,0,1-15.13,15.13H59.79a15.14,15.14,0,0,1-15.13-15.13v-143a15.14,15.14,0,0,1,15.13-15.14H321.41a15.14,15.14,0,0,1,15.13,15.14Zm0,0"/><path class="cls-1" d="M72.57,104H96.7A13.25,13.25,0,0,0,110,90.7V13.26A13.26,13.26,0,0,0,96.7,0H72.57A13.26,13.26,0,0,0,59.31,13.26V90.7A13.25,13.25,0,0,0,72.57,104Zm0,0"/><path class="cls-1" d="M284.5,104h24.13A13.25,13.25,0,0,0,321.89,90.7V13.26A13.26,13.26,0,0,0,308.63,0H284.5a13.26,13.26,0,0,0-13.26,13.26V90.7A13.25,13.25,0,0,0,284.5,104Zm0,0"/></g></g></svg>