<svg xmlns="http://www.w3.org/2000/svg" viewBox="0 0 17.9 18.6"><defs><style>.cls-1{fill:#b6b6b6;}</style></defs><title>icon_name</title><g id="Слой_2" data-name="Слой 2"><g id="Слой_1-2" data-name="Слой 1"><g id="Слой_2-2" data-name="Слой 2"><g id="Слой_1-2-2" data-name="Слой 1-2"><path class="cls-1" d="M17.9,18.6a9,9,0,0,0-5.81-6.91,5.88,5.88,0,0,0,2.83-5A6,6,0,0,0,3,5.31,6.37,6.37,0,0,0,3,6.69a5.9,5.9,0,0,0,2.82,5A9.23,9.23,0,0,0,0,18.6H17.9ZM4.48,6.69A4.48,4.48,0,1,1,9,11.14,4.49,4.49,0,0,1,4.48,6.69ZM1.94,17.23a7.64,7.64,0,0,1,14,0Z"/></g></g></g></g></svg>