<svg xmlns="http://www.w3.org/2000/svg" viewBox="0 0 113.64 55.6"><defs><style>.cls-1{fill:#00d3c3;}</style></defs><title>icon_masters</title><g id="Слой_2" data-name="Слой 2"><g id="Слой_1-2" data-name="Слой 1"><path class="cls-1" d="M107.62,12A41,41,0,0,0,94.88,5,98,98,0,0,0,72.89,0a5.73,5.73,0,0,0-4.53,1.43,5.86,5.86,0,0,0,3.22,10.2,91.72,91.72,0,0,1,16.27,3.28,44.34,44.34,0,0,1,9.26,3.88,5.63,5.63,0,0,1,0,9.72,44.33,44.33,0,0,1-9.26,3.88c-.69.21-1.39.42-2.11.61l1.81,11.63c2.59-.67,5-1.42,7.33-2.26a41,41,0,0,0,12.74-7c5-4.32,6-8.75,6-11.7s-1-7.38-6-11.7Zm0,0"/><path class="cls-1" d="M45.29,1.48A5.73,5.73,0,0,0,41.45,0a6,6,0,0,0-.69,0A98,98,0,0,0,18.76,5,41,41,0,0,0,6,12c-5,4.32-6,8.75-6,11.7s1,7.38,6,11.7a41,41,0,0,0,12.74,7c2.29.84,4.74,1.6,7.33,2.26L27.91,33c-.72-.2-1.42-.4-2.11-.61a44.33,44.33,0,0,1-9.26-3.88,5.63,5.63,0,0,1,0-9.72,44.33,44.33,0,0,1,9.26-3.88,91.72,91.72,0,0,1,16.27-3.28,5.86,5.86,0,0,0,3.22-10.2Zm0,0"/><path class="cls-1" d="M81.05,46.12,79.25,34.54c-2,.39-4.16.72-6.34,1a18.09,18.09,0,0,1,1.85,11.57q3.23-.42,6.29-1Zm0,0"/><path class="cls-1" d="M40.73,35.55c-2.18-.28-4.29-.61-6.34-1l-1.8,11.57q3.06.57,6.29,1a18.1,18.1,0,0,1,1.85-11.57Zm0,0"/><path class="cls-1" d="M56.82,32.49A11.56,11.56,0,1,0,68.38,44,11.57,11.57,0,0,0,56.82,32.49Zm0,0"/></g></g></svg>