<svg xmlns="http://www.w3.org/2000/svg" viewBox="0 0 37.99 47.25"><defs><style>.cls-1{fill:#00d3c3;}</style></defs><title>icon_about</title><g id="Слой_2" data-name="Слой 2"><g id="Слой_1-2" data-name="Слой 1"><path class="cls-1" d="M37.65,21.7A1.83,1.83,0,0,0,36,20.8a8,8,0,0,0-4.19,1.38,14,14,0,0,0-4.23,4.69,1.69,1.69,0,0,1-1.16.85v-.34c0-.25,0-.54,0-.87V8.8a3.2,3.2,0,0,0-6.4,0V21.2a.4.4,0,1,1-.8,0V3.2a3.2,3.2,0,0,0-6.4,0v18a.4.4,0,1,1-.8,0V6.8a2.8,2.8,0,1,0-5.6,0v16a.4.4,0,0,1-.8,0v-10A2.8,2.8,0,0,0,0,12.8V34.56c.77,11.18,7.63,12.7,14.25,12.7A14.52,14.52,0,0,0,27.07,40.2l2.16-3.41c2.5-3.93,4.6-7.23,4.91-7.82a9.66,9.66,0,0,1,2.23-3,6.17,6.17,0,0,0,1.46-1.92,3,3,0,0,0-.18-2.4Zm0,0"/></g></g></svg>