<svg xmlns="http://www.w3.org/2000/svg" viewBox="0 0 66.76 59.34"><defs><style>.cls-1{fill:#222;}</style></defs><title>icon_seminar</title><g id="Слой_2" data-name="Слой 2"><g id="Слой_1-2" data-name="Слой 1"><path class="cls-1" d="M27.82,0C43.18,0,55.63,10.08,55.63,22.51S43.18,45,27.82,45a34.44,34.44,0,0,1-4.34-.27c-6,6-12.88,7-19.77,7.18V50.47c3.72-1.82,6.72-5.13,6.72-8.91A10.41,10.41,0,0,0,10.31,40C4,35.88,0,29.58,0,22.51,0,10.08,12.45,0,27.82,0Zm29.9,50.46c0,3.24,2.1,6.08,5.33,7.64v1.25c-6-.13-11.46-1-16.64-6.15a30.24,30.24,0,0,1-3.76.23,28.06,28.06,0,0,1-14.7-4,35.63,35.63,0,0,0,22.3-7.57,27.22,27.22,0,0,0,7.09-8.54A23.12,23.12,0,0,0,60,22.51c0-.61,0-1.21-.07-1.81,4.21,3.47,6.8,8.21,6.8,13.43,0,6.05-3.49,11.46-8.94,15a8.82,8.82,0,0,0-.1,1.33Zm0,0"/></g></g></svg>