<svg xmlns="http://www.w3.org/2000/svg" viewBox="0 0 18.74 18.76"><defs><style>.cls-1{fill:#b6b6b6;stroke:#b6b6b6;stroke-miterlimit:10;stroke-width:0.75px;}</style></defs><title>icon_phone</title><g id="Слой_2" data-name="Слой 2"><g id="Слой_1-2" data-name="Слой 1"><g id="Слой_2-2" data-name="Слой 2"><g id="Слой_1-2-2" data-name="Слой 1-2"><path class="cls-1" d="M14.83,18.36a7.71,7.71,0,0,1-2.65-.56A19.84,19.84,0,0,1,5.5,13.23,19.87,19.87,0,0,1,.94,6.55c-.75-2-.75-3.61,0-4.35l.33-.34A3.53,3.53,0,0,1,3.73.38,3,3,0,0,1,5.81,1.71c2,2.56,1.13,3.47.06,4.53l-.19.19c-.17.18-.51,1,2.58,4.07a17.16,17.16,0,0,0,2.55,2.19c.43.28,1.21.7,1.52.39l.19-.19c1.05-1.07,2-2,4.52.06a3,3,0,0,1,1.32,2,3.5,3.5,0,0,1-1.49,2.46l-.34.33a2.37,2.37,0,0,1-1.71.56ZM3.65,1c-.72,0-1.38.69-2,1.29l-.34.35c-.55.55-.5,2,.14,3.71A19.26,19.26,0,0,0,5.94,12.8a19.34,19.34,0,0,0,6.46,4.43c1.7.64,3.16.7,3.71.14l.35-.34c.62-.59,1.33-1.26,1.3-2a2.44,2.44,0,0,0-1.1-1.63c-2.13-1.71-2.72-1.11-3.71-.11l-.2.2c-.47.47-1.23.37-2.28-.31a17.56,17.56,0,0,1-2.65-2.27C5.26,8.36,4.44,6.79,5.24,6l.19-.19c1-1,1.61-1.58-.1-3.71A2.45,2.45,0,0,0,3.7,1Z"/></g></g></g></g></svg>