<svg xmlns="http://www.w3.org/2000/svg" viewBox="0 0 311.3 390.18"><defs><style>.cls-1{fill:#48bab5;}</style></defs><title>icon_placeholder</title><g id="Слой_2" data-name="Слой 2"><g id="Режим_изоляции" data-name="Режим изоляции"><path class="cls-1" d="M150.1.1C72.58,2.82,8.18,63.3.74,140.5a156.69,156.69,0,0,0,2.08,44.72s.24,1.68,1,4.88A156.15,156.15,0,0,0,14.34,221c15.6,37,51.68,98.8,132.64,166.08a13.53,13.53,0,0,0,17.28,0c81-67.2,117-129,132.72-166.16A149.33,149.33,0,0,0,307.46,190c.72-3.12,1-4.88,1-4.88A155.74,155.74,0,0,0,150.1.1Zm5.52,233a75.6,75.6,0,1,1,75.6-75.6,75.59,75.59,0,0,1-75.6,75.6Zm0,0"/></g></g></svg>