<svg xmlns="http://www.w3.org/2000/svg" viewBox="0 0 25.31 18.14"><defs><style>.cls-1{fill:#b6b6b6;stroke:#b6b6b6;stroke-miterlimit:10;stroke-width:0.5px;}</style></defs><title>mail_icon</title><g id="Слой_2" data-name="Слой 2"><g id="Слой_1-2" data-name="Слой 1"><g id="Слой_2-2" data-name="Слой 2"><g id="Слой_1-2-2" data-name="Слой 1-2"><path class="cls-1" d="M23.06,17.89H2.25a2,2,0,0,1-2-2V2.25a2,2,0,0,1,2-2H23.06a2,2,0,0,1,2,2V15.89A2,2,0,0,1,23.06,17.89ZM2.25,1A1.2,1.2,0,0,0,1,2.25H1V15.89a1.2,1.2,0,0,0,1.2,1.2H23.06a1.2,1.2,0,0,0,1.2-1.2h0V2.25A1.2,1.2,0,0,0,23.06,1H2.25Z"/><path class="cls-1" d="M12.66,11.08a2.23,2.23,0,0,1-1.47-.53L1,1.64A.4.4,0,0,1,1.49,1L11.71,9.95a1.5,1.5,0,0,0,1.89,0L23.82,1a.4.4,0,0,1,.53.61h0L14.13,10.55A2.22,2.22,0,0,1,12.66,11.08Z"/></g></g></g></g></svg>