<svg xmlns="http://www.w3.org/2000/svg" viewBox="0 0 230.42 230.38"><defs><style>.cls-1{fill:#fff;}</style></defs><title>phone_icon</title><g id="Слой_2" data-name="Слой 2"><g id="Режим_изоляции" data-name="Режим изоляции"><path class="cls-1" d="M229.39,183.67l-1.15-3.5c-2.7-8-11.6-16.45-19.8-18.7l-30.27-8.27c-8.2-2.23-19.9.77-25.92,6.8l-11,10.95a116.29,116.29,0,0,1-81.77-81.8L70.46,78.2c6-6,9-17.7,6.78-25.93L69,22c-2.22-8.2-10.68-17.1-18.72-19.8L46.81,1c-8.07-2.7-19.6,0-25.6,6.05L4.81,23.5C1.89,26.39,0,34.72,0,34.75A193.41,193.41,0,0,0,195.18,230.37c.28,0,8.85-1.83,11.78-4.75l16.4-16.4c6-6,8.7-17.5,6-25.55Z"/></g></g></svg>