<svg xmlns="http://www.w3.org/2000/svg" viewBox="0 0 9.47 9.5"><defs><style>.cls-1{fill:#48bab5;fill-rule:evenodd;}.cls-2{fill:#fff;}</style></defs><title>select_icon</title><g id="Слой_2" data-name="Слой 2"><g id="Режим_изоляции" data-name="Режим изоляции"><path class="cls-1" d="M4.73,0A4.74,4.74,0,0,1,9.47,4.73,4.8,4.8,0,0,1,8.08,8.11a4.72,4.72,0,0,1-6.69,0A4.8,4.8,0,0,1,0,4.73,4.74,4.74,0,0,1,4.73,0Z"/><path class="cls-2" d="M4.75,2,7.3,4.61s0,.07,0,.1L4.75,7.28a.11.11,0,0,1-.1,0L4.08,6.7,5.7,5.1H2.27A.15.15,0,0,1,2.14,5V4.35a.15.15,0,0,1,.13-.13H5.7L4.08,2.61,4.65,2a.11.11,0,0,1,.1,0Z"/></g></g></svg>