<svg xmlns="http://www.w3.org/2000/svg" viewBox="0 0 17.75 17.75"><defs><style>.cls-1{fill:#b6b6b6;stroke:#b6b6b6;stroke-miterlimit:10;stroke-width:0.25px;}</style></defs><title>talk_icon</title><g id="Слой_2" data-name="Слой 2"><g id="Слой_1-2" data-name="Слой 1"><path class="cls-1" d="M15.06,2.69a8.75,8.75,0,0,0-13,11.74A3.28,3.28,0,0,1,.73,16,.82.82,0,0,0,1,17.56a4.16,4.16,0,0,0,.62,0,5.66,5.66,0,0,0,3.14-1A8.75,8.75,0,0,0,15.06,2.69Zm-.7,11.67a7.76,7.76,0,0,1-9.42,1.21.49.49,0,0,0-.55,0,4.71,4.71,0,0,1-2.75,1,5,5,0,0,0,1.5-2.07A.5.5,0,0,0,3.06,14a7.76,7.76,0,1,1,11.3.35Zm0,0"/><path class="cls-1" d="M12.54,6H5.21a.49.49,0,0,0,0,1h7.33a.49.49,0,0,0,0-1Zm0,0"/><path class="cls-1" d="M12.54,8.38H5.21a.49.49,0,0,0,0,1h7.33a.49.49,0,0,0,0-1Zm0,0"/><path class="cls-1" d="M12.54,10.78H5.21a.49.49,0,1,0,0,1h7.33a.49.49,0,1,0,0-1Zm0,0"/></g></g></svg>